<?xml version="1.0" encoding="utf-8"?>
<!-- Generator: Adobe Illustrator 28.5.0, SVG Export Plug-In . SVG Version: 9.03 Build 54727)  -->
<svg version="1.1" xmlns="http://www.w3.org/2000/svg" xmlns:xlink="http://www.w3.org/1999/xlink" x="0px" y="0px"
	 viewBox="0 0 50.33 50.39" style="enable-background:new 0 0 50.33 50.39;" xml:space="preserve">
<style type="text/css">
	.st0{fill:#735D22;}
	.st1{fill:#0C0D13;}
</style>
<g id="Calque_1">
</g>
<g id="Mode_Isolation">
	<g id="XMLID_1560_">
		<path id="XMLID_1566_" class="st0" d="M40.41,48.91H9.92c-4.68,0-8.47-3.79-8.47-8.47V9.95c0-4.68,3.79-8.47,8.47-8.47h30.49
			c4.68,0,8.47,3.79,8.47,8.47v30.49C48.88,45.12,45.09,48.91,40.41,48.91z"/>
		<g id="XMLID_1561_">
			<g id="XMLID_1563_">
				<rect id="XMLID_1565_" x="14.41" y="19.91" class="st1" width="4.91" height="15.85"/>
				<path id="XMLID_1564_" class="st1" d="M16.84,17.83c1.6,0,2.9-1.31,2.9-2.93s-1.3-2.93-2.9-2.93c-1.6,0-2.9,1.31-2.9,2.93
					S15.24,17.83,16.84,17.83z"/>
			</g>
			<path id="XMLID_1562_" class="st1" d="M27.17,27.44c0-2.23,1.03-3.56,2.99-3.56c1.8,0,2.67,1.27,2.67,3.56c0,2.28,0,8.32,0,8.32
				h4.88c0,0,0-5.79,0-10.04c0-4.25-2.41-6.3-5.77-6.3c-3.36,0-4.78,2.62-4.78,2.62v-2.14h-4.71v15.85h4.71
				C27.17,35.76,27.17,29.88,27.17,27.44z"/>
		</g>
	</g>
</g>
</svg>
